<?xml version="1.0" standalone="no"?>
<!DOCTYPE svg PUBLIC "-//W3C//DTD SVG 20010904//EN"
 "http://www.w3.org/TR/2001/REC-SVG-20010904/DTD/svg10.dtd">
<svg version="1.0" xmlns="http://www.w3.org/2000/svg"
 width="4000.000000pt" height="4000.000000pt" viewBox="0 0 4000.000000 4000.000000"
 preserveAspectRatio="xMidYMid meet">

<g transform="translate(0.000000,4000.000000) scale(0.100000,-0.100000)"
fill="#000000" stroke="none">
<path d="M19770 39205 l0 -154 -157 -3 -158 -3 -3 -217 -2 -217 142 -3 143 -3
-3 -110 c-4 -150 -8 -165 -64 -195 -115 -64 -216 -165 -273 -277 -17 -32 -31
-60 -32 -62 -2 -2 -48 17 -103 43 -198 93 -337 99 -498 20 -80 -39 -182 -132
-242 -222 -27 -41 -39 -51 -55 -47 -154 40 -463 85 -583 85 -93 0 -145 -30
-282 -164 -63 -62 -150 -145 -193 -184 -72 -66 -80 -70 -105 -61 -66 25 -235
60 -322 65 -183 12 -339 -39 -459 -151 -108 -101 -186 -240 -237 -422 l-16
-60 -187 -6 c-220 -7 -299 -24 -441 -93 -76 -38 -110 -62 -171 -123 -127 -127
-173 -249 -173 -464 l-1 -127 -30 -4 c-16 -3 -50 -8 -74 -11 -59 -8 -176 -64
-226 -108 l-40 -35 -60 52 c-202 177 -374 256 -557 256 -103 0 -166 -14 -266
-61 -107 -49 -165 -91 -279 -202 l-92 -90 -238 2 c-260 2 -335 -7 -453 -55
-208 -84 -335 -243 -387 -481 l-16 -71 -158 5 c-239 9 -369 -19 -506 -108
-155 -101 -253 -261 -312 -509 l-27 -115 -100 -6 c-243 -15 -439 -140 -562
-359 -36 -63 -36 -67 -44 -210 -10 -189 -37 -424 -49 -428 -5 -2 -51 -31 -101
-64 -115 -75 -256 -216 -328 -327 l-55 -85 0 -175 c0 -163 2 -179 23 -218 26
-50 52 -152 52 -210 0 -39 -3 -43 -63 -86 -139 -99 -248 -244 -282 -372 -40
-155 9 -350 134 -535 17 -25 31 -47 31 -51 0 -3 -29 -57 -65 -120 -99 -172
-231 -448 -259 -541 -105 -343 -14 -656 282 -979 173 -188 389 -311 619 -355
109 -20 359 -15 473 10 l75 16 63 -59 c65 -62 151 -111 234 -131 33 -8 61 -26
97 -61 27 -26 74 -60 103 -75 52 -26 54 -26 283 -28 l230 -1 100 -44 c55 -24
125 -56 155 -71 l55 -27 220 94 c701 299 1573 624 2120 788 1336 401 2638 636
4045 731 319 21 1293 30 1641 15 2188 -96 4265 -598 6359 -1536 l211 -94 92
31 c51 16 128 49 172 72 l80 41 220 1 220 2 85 52 c47 29 150 85 230 124 111
54 155 81 184 114 58 64 64 65 153 40 68 -20 100 -23 253 -22 161 0 182 2 265
27 109 34 262 107 370 178 96 64 241 201 300 284 146 205 205 451 183 754 -11
149 -21 177 -196 534 -116 238 -116 238 -99 265 42 65 89 167 109 239 18 63
23 103 23 213 l0 135 -53 78 c-72 105 -189 244 -257 303 l-56 49 40 85 c56
116 74 195 74 315 0 139 -23 223 -81 300 -74 96 -249 266 -357 345 -55 40
-103 76 -107 79 -4 4 -1 47 7 96 79 487 -131 773 -625 849 l-75 12 -8 44 c-52
291 -154 459 -342 565 -124 70 -224 95 -410 104 -134 6 -157 10 -211 35 l-61
28 -18 66 c-32 118 -90 219 -174 302 -42 41 -104 91 -139 111 -74 43 -76 43
-482 60 l-275 12 -95 92 c-191 185 -348 260 -541 259 -177 -2 -344 -81 -549
-262 l-45 -39 -40 33 c-22 18 -68 46 -101 63 -51 25 -90 36 -209 57 -19 3 -20
10 -17 101 7 196 -55 361 -182 488 -102 101 -172 141 -303 170 -99 22 -335 65
-443 80 l-45 6 -34 87 c-132 343 -360 522 -667 522 -99 0 -250 -25 -349 -59
l-60 -20 -50 57 c-197 224 -254 279 -314 306 -113 50 -212 69 -336 63 -116 -6
-193 -26 -307 -82 l-57 -29 -88 76 c-141 120 -319 246 -361 255 -61 12 -203 7
-272 -11 -36 -9 -102 -34 -148 -57 -46 -22 -85 -39 -86 -37 -2 1 -13 25 -26
51 -49 104 -160 220 -261 272 -22 12 -29 25 -40 82 -7 37 -13 106 -13 153 l-1
85 143 3 142 3 -2 217 -3 217 -156 3 -157 2 -11 43 c-7 23 -15 93 -18 155 l-6
112 -213 0 -214 0 0 -155z m370 -85 l0 -170 185 0 185 0 0 -120 0 -120 -167
-2 -168 -3 -3 -252 -2 -251 42 -7 c24 -4 73 -20 109 -37 56 -25 74 -40 117
-96 50 -66 157 -231 165 -255 3 -8 25 -1 71 21 275 136 498 112 682 -72 38
-39 90 -101 114 -138 23 -38 45 -68 47 -68 2 0 28 17 56 39 62 45 149 90 227
117 42 14 82 19 165 18 98 -1 119 -4 195 -33 139 -52 210 -107 320 -248 52
-68 107 -135 122 -149 l26 -27 74 31 c303 126 548 95 727 -93 124 -130 200
-285 209 -423 4 -72 7 -82 22 -77 9 3 50 12 91 19 241 46 450 21 586 -69 169
-112 263 -314 280 -601 l6 -102 81 -26 c45 -15 154 -63 244 -107 l162 -80 83
74 c196 174 351 247 527 247 98 -1 181 -25 275 -80 78 -46 218 -185 289 -288
44 -63 62 -82 75 -77 214 87 384 105 579 60 89 -21 174 -80 240 -169 72 -97
103 -185 117 -328 l7 -68 151 0 c84 0 219 -5 300 -10 147 -9 149 -10 230 -52
93 -48 200 -146 236 -215 52 -103 63 -256 27 -390 l-14 -52 31 -5 c18 -3 79
-13 137 -22 184 -28 372 -74 420 -102 57 -33 139 -114 173 -172 90 -154 69
-387 -53 -590 l-47 -78 141 -47 c213 -70 314 -117 358 -165 90 -101 151 -221
171 -338 23 -140 -35 -301 -162 -449 l-70 -82 52 -17 c114 -37 209 -95 298
-184 101 -100 156 -188 165 -264 16 -131 -44 -292 -146 -397 l-59 -60 53 -70
c141 -187 236 -414 271 -644 17 -114 19 -308 5 -409 -27 -183 -116 -361 -240
-480 -133 -127 -230 -169 -520 -226 -224 -45 -369 -65 -560 -80 -120 -10 -138
-14 -165 -36 -149 -121 -314 -209 -472 -251 -77 -20 -130 -26 -248 -30 -149
-5 -150 -5 -230 -44 -44 -21 -111 -45 -148 -54 l-69 -16 -266 115 c-1927 828
-3845 1301 -5842 1441 -588 41 -1476 53 -2000 26 -912 -45 -1897 -158 -2500
-285 -1280 -271 -2613 -692 -3805 -1203 l-219 -94 -71 21 c-38 12 -99 37 -135
57 -59 32 -70 35 -123 30 -79 -7 -254 9 -349 33 -161 40 -303 110 -448 220
l-75 57 -140 7 c-266 13 -499 58 -726 140 -194 70 -250 100 -311 164 -214 224
-316 504 -287 785 24 238 109 442 334 808 2 3 -21 39 -51 80 -31 41 -71 106
-91 145 -81 165 -42 379 93 503 45 42 132 95 272 166 51 25 92 50 90 53 -2 4
-29 50 -60 103 -186 312 -197 559 -32 724 98 98 313 190 517 220 26 4 47 9 47
11 0 1 -14 23 -30 48 -129 190 -152 408 -69 631 43 114 168 208 320 239 90 18
259 36 344 36 l63 0 -14 53 c-57 212 -8 407 135 539 38 35 101 80 140 101 69
38 74 39 218 47 82 5 219 10 306 10 156 0 157 0 157 23 0 47 53 216 94 302
138 284 391 355 766 214 86 -32 105 -37 112 -25 4 8 34 50 66 93 117 157 262
279 390 326 44 16 80 21 162 21 94 0 113 -3 181 -30 111 -45 210 -114 326
-229 l101 -100 50 45 c102 92 281 176 414 195 l48 7 -6 117 c-17 320 109 525
377 615 131 44 200 51 382 37 89 -7 174 -15 188 -18 l26 -5 7 88 c14 181 58
296 153 395 169 177 456 219 767 112 l79 -27 16 24 c86 130 256 313 328 353
74 40 191 75 273 82 135 12 293 -39 417 -134 l53 -40 122 123 c80 79 155 144
212 182 l90 58 115 1 c134 0 226 -23 324 -81 32 -19 60 -34 62 -34 1 0 32 44
68 98 113 168 190 254 250 279 29 12 71 23 95 23 l42 0 -2 253 -3 252 -167 3
-168 2 0 120 0 120 170 0 170 0 0 170 0 170 140 0 140 0 0 -170z"/>
<path d="M18952 37713 c-25 -3 -53 -24 -116 -86 -91 -91 -126 -144 -151 -231
-32 -110 8 -226 117 -333 104 -104 142 -127 213 -131 77 -5 189 12 249 38 68
29 139 100 172 173 25 55 28 76 32 187 l4 125 -42 62 c-52 79 -108 127 -189
166 -55 26 -76 30 -160 33 -53 1 -111 0 -129 -3z m267 -127 c68 -25 111 -63
140 -125 23 -50 26 -68 25 -156 l-1 -100 -58 -52 c-153 -140 -285 -137 -419 8
-57 62 -64 75 -70 122 -12 96 22 193 91 258 72 68 80 71 168 66 44 -3 100 -12
124 -21z"/>
<path d="M20715 37668 c-209 -155 -251 -345 -123 -561 47 -81 95 -116 211
-152 159 -50 268 -26 377 84 88 88 130 169 130 247 -1 181 -84 326 -225 391
-53 24 -75 28 -185 31 l-125 4 -60 -44z m217 -69 c68 -15 115 -39 155 -81 45
-47 65 -101 71 -195 4 -75 3 -85 -22 -126 -50 -86 -148 -147 -235 -147 -85 0
-110 11 -176 75 -73 70 -115 147 -115 211 0 63 50 154 122 219 68 61 93 67
200 44z"/>
<path d="M17874 37519 c-49 -14 -189 -167 -227 -247 -43 -90 -45 -180 -5 -265
30 -63 123 -167 202 -225 49 -36 52 -37 140 -36 291 1 426 138 426 433 0 79
-3 91 -29 133 -67 106 -150 173 -250 202 -59 17 -205 20 -257 5z m284 -124
c56 -23 118 -95 137 -158 8 -28 15 -83 15 -123 0 -71 -1 -75 -43 -126 -29 -36
-64 -64 -108 -87 -59 -30 -69 -33 -136 -29 -69 5 -145 32 -196 72 -30 23 -57
118 -57 198 0 90 28 155 95 227 34 36 55 51 78 53 57 5 171 -9 215 -27z"/>
<path d="M21780 37484 c-112 -87 -161 -156 -186 -256 -22 -90 -7 -177 49 -289
39 -76 47 -85 107 -121 199 -119 372 -99 531 63 66 67 67 70 74 134 37 343
-104 506 -440 504 -88 0 -91 -1 -135 -35z m315 -93 c104 -46 144 -111 145
-233 0 -42 -5 -100 -11 -128 -10 -47 -17 -56 -71 -96 -140 -103 -269 -94 -389
26 -57 57 -73 106 -67 206 6 86 41 157 108 216 l45 40 95 -4 c69 -4 109 -11
145 -27z"/>
<path d="M16796 37058 c-113 -114 -151 -190 -151 -303 0 -70 4 -87 33 -142 31
-61 138 -185 193 -223 15 -11 58 -24 96 -30 129 -18 248 17 357 105 52 43 54
46 77 137 29 117 31 240 5 317 -48 140 -206 220 -434 221 l-93 0 -83 -82z
m273 -49 c122 -26 185 -105 184 -233 0 -111 -25 -194 -71 -234 -128 -113 -254
-115 -389 -5 -54 44 -85 121 -85 213 -1 88 28 154 97 220 l54 50 80 0 c44 0
102 -5 130 -11z"/>
<path d="M22733 37097 c-175 -129 -223 -311 -137 -521 30 -72 91 -127 198
-177 128 -60 263 -46 392 40 81 54 98 76 120 151 28 97 27 288 -2 351 -60 129
-207 198 -420 199 l-92 0 -59 -43z m358 -82 c72 -9 131 -52 165 -122 26 -51
29 -69 29 -153 0 -85 -3 -100 -27 -140 -44 -75 -76 -99 -149 -111 -212 -35
-336 59 -355 272 -6 60 -4 71 22 119 16 29 48 72 72 96 54 52 90 58 243 39z"/>
<path d="M19835 36732 c-115 -75 -150 -114 -181 -199 -24 -64 -29 -94 -29
-168 0 -82 3 -97 33 -157 22 -45 52 -85 97 -127 81 -75 104 -87 195 -102 125
-21 237 11 325 92 76 70 102 122 116 227 39 292 -95 447 -406 468 l-90 6 -60
-40z m300 -127 c101 -49 145 -131 145 -267 0 -89 -17 -126 -87 -189 -61 -55
-117 -73 -215 -67 l-82 5 -52 55 c-74 80 -99 137 -99 223 0 91 20 132 104 214
l66 64 82 -6 c63 -4 97 -12 138 -32z"/>
<path d="M15835 36503 c-65 -55 -139 -148 -168 -213 -14 -31 -20 -68 -21 -120
-1 -69 3 -83 37 -153 28 -57 58 -97 118 -156 73 -73 85 -81 137 -92 171 -35
347 36 448 183 29 41 29 42 29 192 -1 173 -11 210 -86 290 -73 80 -180 116
-343 116 l-94 0 -57 -47z m265 -54 c167 -27 243 -131 226 -312 -8 -84 -20
-110 -84 -169 -86 -80 -196 -97 -312 -47 -35 15 -55 34 -87 82 -54 79 -65 109
-66 179 0 76 37 151 109 217 66 61 100 69 214 50z"/>
<path d="M19130 36538 c-726 -122 -1398 -342 -2021 -659 -325 -166 -672 -429
-896 -681 -374 -419 -578 -877 -649 -1453 -18 -152 -24 -499 -10 -645 l8 -85
91 -33 c125 -46 276 -120 367 -179 461 -303 509 -731 146 -1307 -31 -49 -53
-92 -49 -96 4 -4 63 -48 129 -97 109 -81 128 -92 190 -104 88 -17 263 -18 334
0 99 24 210 84 289 157 70 65 171 194 171 219 0 6 -20 47 -45 91 -55 96 -102
215 -122 309 -59 277 93 485 437 599 147 48 246 67 364 67 173 0 278 -43 382
-154 60 -65 124 -187 147 -282 9 -34 21 -169 28 -307 7 -136 15 -251 18 -256
11 -17 142 -100 215 -136 92 -46 167 -60 287 -53 116 6 236 44 323 102 55 36
186 159 186 174 0 4 -33 22 -74 40 -155 68 -310 194 -399 325 -58 86 -124 232
-141 312 -74 351 32 619 319 809 l81 53 11 67 c27 156 121 269 275 331 27 10
48 23 48 28 0 10 -67 91 -152 183 -124 134 -173 303 -133 458 23 88 54 142
164 284 l101 131 -52 67 c-98 129 -168 318 -168 450 1 154 80 338 209 485 l41
46 -33 43 c-127 167 -202 377 -214 597 l-6 112 -71 -1 c-39 -1 -96 -6 -126
-11z m70 -225 c1 -139 55 -295 141 -409 l46 -61 -24 -39 c-114 -184 -173 -378
-173 -568 0 -152 62 -295 181 -422 l48 -50 -95 -84 c-52 -45 -99 -91 -105
-101 -8 -15 -18 -18 -47 -14 -20 3 -131 17 -247 31 -115 14 -315 40 -444 59
-315 47 -478 59 -701 52 -217 -7 -379 -26 -584 -68 -258 -53 -368 -90 -1001
-337 -201 -79 -334 -126 -340 -120 -5 5 -10 34 -9 66 0 51 8 73 82 217 170
334 323 546 577 800 188 189 308 287 502 411 129 82 356 200 506 263 197 82
689 231 1157 351 260 67 268 68 398 69 l132 1 0 -47z"/>
<path d="M20675 36397 c0 -114 -5 -168 -18 -217 -25 -91 -98 -235 -156 -306
l-48 -61 54 -84 c153 -238 173 -292 173 -459 0 -153 -56 -312 -152 -429 -78
-97 -78 -81 -6 -163 148 -169 208 -300 208 -450 0 -158 -86 -335 -234 -477
l-45 -45 72 -46 c40 -25 95 -72 124 -103 55 -60 128 -193 139 -253 5 -29 17
-41 75 -79 129 -84 231 -206 296 -355 73 -169 50 -468 -52 -670 -85 -169 -215
-290 -430 -401 -118 -61 -119 -67 -18 -167 59 -58 100 -88 167 -122 l89 -45
141 -3 c100 -3 162 1 215 12 200 42 323 156 366 338 18 75 19 242 4 353 -11
79 -11 81 19 146 82 181 185 277 347 324 89 26 256 16 401 -24 284 -78 451
-189 528 -351 26 -56 31 -78 34 -166 6 -138 -18 -230 -105 -403 l-66 -135 32
-62 c89 -172 316 -308 536 -321 157 -9 275 32 416 145 125 100 121 85 53 199
-238 399 -280 744 -123 1010 49 82 170 201 272 268 104 67 255 140 389 186
l97 34 8 65 c12 99 8 502 -6 615 -54 435 -195 827 -420 1167 -117 177 -208
287 -385 464 -155 156 -186 181 -331 277 -805 527 -1627 823 -2615 941 l-45 5
0 -152z m385 -73 c642 -90 1235 -290 1800 -607 166 -93 480 -301 561 -371 206
-180 453 -507 596 -791 48 -93 156 -355 150 -361 -2 -2 -152 46 -333 106 -181
61 -484 160 -674 220 -302 95 -363 112 -490 129 -321 44 -607 57 -883 42 -307
-18 -492 -43 -784 -108 l-162 -35 -83 64 c-46 36 -104 85 -131 109 l-47 44 50
60 c117 138 178 323 167 501 -7 108 -16 137 -112 351 l-73 165 44 66 c73 109
114 244 114 380 l0 72 58 -6 c31 -3 136 -17 232 -30z"/>
<path d="M23788 36530 c-63 -34 -155 -128 -184 -186 -39 -79 -45 -214 -16
-310 39 -126 153 -242 259 -264 146 -31 283 8 384 110 72 71 85 98 99 199 21
151 -10 272 -89 351 -76 75 -164 107 -321 115 -83 5 -100 3 -132 -15z m253
-96 c109 -35 169 -128 177 -272 4 -82 4 -83 -32 -138 -65 -97 -159 -141 -281
-131 l-70 6 -56 59 c-77 82 -104 140 -103 222 0 50 7 77 28 119 33 63 109 148
139 155 36 7 149 -4 198 -20z"/>
<path d="M14136 35885 c-68 -36 -156 -133 -207 -228 -31 -58 -31 -62 -27 -161
11 -209 97 -327 287 -391 85 -29 134 -31 216 -10 127 33 223 116 283 244 32
71 34 79 28 147 -19 211 -106 340 -263 393 -79 27 -270 30 -317 6z m263 -147
c106 -40 164 -135 165 -273 0 -59 -4 -78 -27 -117 -55 -94 -138 -142 -247
-142 -95 -1 -127 13 -180 77 -129 158 -121 291 28 428 l67 61 70 -7 c38 -4 94
-16 124 -27z"/>
<path d="M25511 35884 c-52 -22 -173 -151 -207 -220 -26 -52 -29 -70 -29 -150
0 -84 3 -95 37 -165 20 -40 60 -102 89 -136 45 -53 62 -65 122 -88 229 -85
406 -27 537 176 36 55 40 69 40 123 -2 263 -117 426 -330 466 -78 15 -219 12
-259 -6z m326 -144 c118 -52 160 -144 142 -307 -6 -59 -14 -82 -40 -118 -61
-84 -142 -121 -245 -112 -78 8 -108 23 -161 80 -69 74 -78 99 -78 208 0 96 0
97 39 153 22 32 58 73 80 93 l41 35 87 -5 c57 -4 104 -13 135 -27z"/>
<path d="M15142 35700 c-121 -78 -193 -185 -211 -312 -15 -104 -2 -176 42
-236 78 -106 174 -172 278 -192 91 -18 215 13 316 79 63 41 70 53 110 186 23
81 23 235 -1 289 -56 125 -205 203 -419 218 -54 4 -63 2 -115 -32z m313 -59
c108 -48 149 -123 148 -268 -1 -75 -5 -99 -21 -125 -31 -49 -92 -105 -134
-123 -47 -19 -158 -20 -204 0 -45 19 -144 119 -169 171 -55 116 -16 230 117
341 l43 35 85 -4 c59 -3 100 -11 135 -27z"/>
<path d="M19846 35690 c-89 -58 -169 -143 -201 -212 -48 -103 -30 -240 47
-372 55 -92 76 -113 146 -142 59 -25 80 -28 172 -29 126 0 184 19 275 93 54
43 61 53 83 122 32 100 40 237 18 311 -41 142 -184 238 -400 267 l-68 9 -72
-47z m256 -100 c56 -16 119 -69 147 -125 21 -40 27 -67 29 -142 4 -85 2 -97
-22 -137 -54 -92 -141 -146 -235 -146 -80 0 -127 19 -174 69 -151 161 -141
328 27 463 l51 40 70 -5 c39 -4 87 -11 107 -17z"/>
<path d="M24509 35711 c-64 -43 -142 -128 -173 -188 -50 -101 -51 -232 0 -360
34 -88 52 -106 149 -154 179 -89 348 -62 494 79 58 57 59 57 71 140 34 225
-26 380 -175 452 -56 27 -146 48 -240 55 -77 6 -81 5 -126 -24z m265 -69 c139
-54 187 -167 147 -350 -13 -59 -17 -65 -72 -106 -143 -108 -282 -96 -403 34
-38 40 -45 55 -51 104 -17 133 28 235 140 318 38 29 43 30 116 24 42 -3 97
-14 123 -24z"/>
<path d="M13145 35487 c-79 -42 -165 -128 -198 -198 -31 -66 -51 -173 -45
-237 9 -90 92 -227 178 -296 94 -75 228 -90 377 -42 75 24 86 32 141 91 102
111 150 239 132 352 -17 107 -133 269 -225 313 -51 25 -176 49 -250 49 -37 0
-65 -8 -110 -32z m285 -126 c114 -43 170 -138 170 -285 0 -80 -2 -87 -33 -128
-73 -96 -181 -138 -301 -117 -61 10 -69 15 -110 61 -88 101 -121 196 -97 285
14 50 70 127 131 178 45 37 46 37 115 32 38 -3 95 -15 125 -26z"/>
<path d="M26500 35472 c-88 -57 -153 -126 -189 -202 -22 -48 -26 -68 -26 -155
0 -150 26 -219 115 -306 180 -176 381 -179 572 -8 51 44 61 59 80 122 19 59
23 95 23 197 0 116 -2 129 -27 175 -54 103 -152 168 -298 198 -159 33 -166 33
-250 -21z m248 -101 c124 -38 182 -120 190 -266 4 -68 1 -88 -16 -122 -66
-128 -177 -182 -314 -154 -48 10 -63 20 -108 66 -28 30 -63 81 -78 112 -54
117 -25 222 91 329 57 53 60 54 117 54 32 0 85 -8 118 -19z"/>
<path d="M12158 34940 c-179 -118 -257 -271 -229 -456 17 -116 54 -201 109
-253 159 -150 334 -189 496 -112 46 22 94 57 143 105 68 64 76 77 89 131 44
187 24 344 -60 458 -57 78 -208 148 -347 162 -35 3 -78 8 -94 11 -24 3 -47 -6
-107 -46z m212 -91 c206 -33 294 -155 269 -374 -9 -79 -10 -80 -62 -129 -110
-104 -238 -134 -344 -80 -69 34 -169 141 -180 191 -15 69 -8 175 14 224 24 53
73 111 127 151 43 31 72 34 176 17z"/>
<path d="M27447 34943 c-76 -50 -196 -174 -223 -230 -15 -31 -18 -62 -18 -168
0 -148 2 -155 90 -270 179 -237 389 -256 646 -58 54 41 59 49 84 126 35 109
45 279 20 359 -45 140 -159 225 -353 262 -156 30 -172 28 -246 -21z m248 -98
c192 -36 274 -139 262 -325 -7 -108 -21 -143 -81 -198 -69 -63 -125 -85 -216
-85 -124 0 -223 61 -277 171 -24 49 -28 69 -27 137 1 125 58 223 168 285 59
34 68 35 171 15z"/>
<path d="M14664 34917 c-52 -24 -132 -115 -172 -196 -36 -73 -37 -77 -37 -190
0 -108 2 -120 29 -174 33 -65 107 -139 181 -183 48 -28 55 -29 170 -29 113 0
123 2 178 29 71 36 136 104 176 184 26 52 31 73 31 135 0 208 -80 351 -228
408 -73 28 -279 38 -328 16z m257 -112 c113 -39 171 -131 173 -275 1 -83 0
-86 -39 -145 -26 -38 -58 -70 -89 -90 -46 -28 -56 -30 -140 -30 -104 1 -133
12 -198 77 -58 58 -82 118 -82 203 0 107 14 135 107 216 l82 71 70 -6 c39 -3
91 -13 116 -21z"/>
<path d="M25022 34923 c-27 -5 -173 -148 -215 -209 -52 -77 -58 -217 -15 -332
25 -67 117 -167 189 -206 42 -23 68 -30 138 -34 150 -8 265 42 350 152 61 79
71 111 71 230 0 231 -87 349 -287 391 -64 14 -180 18 -231 8z m262 -119 c115
-40 174 -146 163 -297 -4 -68 -10 -86 -35 -121 -69 -94 -181 -139 -301 -118
-61 10 -69 15 -109 59 -139 156 -135 305 11 445 l62 61 80 -6 c44 -3 102 -14
129 -23z"/>
<path d="M19791 34610 c-52 -33 -97 -60 -101 -60 -15 0 -108 -199 -120 -256
-19 -90 -8 -182 29 -259 36 -72 120 -163 205 -219 113 -75 289 -74 428 1 57
31 143 119 183 187 27 46 29 60 33 169 5 132 -6 204 -43 277 -68 135 -240 220
-445 219 -74 0 -76 0 -169 -59z m301 -120 c97 -26 178 -96 199 -172 16 -59 6
-169 -23 -248 l-23 -65 -79 -40 c-70 -36 -86 -40 -150 -40 -60 0 -81 5 -136
32 -87 43 -95 50 -129 123 -76 160 -35 300 120 404 47 31 51 32 114 25 36 -5
84 -13 107 -19z"/>
<path d="M14000 34586 c-525 -220 -918 -474 -1261 -816 -252 -251 -416 -473
-563 -759 -249 -487 -365 -988 -383 -1658 l-6 -232 98 -93 c403 -380 418 -763
47 -1183 l-70 -80 51 -12 c86 -20 207 -26 294 -14 255 36 419 158 504 374 l27
70 -59 80 c-75 100 -128 190 -175 297 -34 77 -36 87 -29 149 38 380 237 606
612 696 l72 18 88 -28 c273 -85 470 -269 569 -531 24 -62 39 -86 84 -128 109
-101 210 -132 395 -123 194 10 311 53 404 152 91 96 131 211 131 381 l0 91
-116 1 c-353 5 -602 114 -770 335 -26 34 -61 91 -77 126 l-30 64 11 138 c18
209 72 371 173 521 55 82 175 206 267 275 l72 54 -57 44 c-70 52 -237 223
-280 285 -17 25 -43 79 -59 120 -26 69 -28 87 -29 210 l0 135 39 64 c107 174
236 279 453 367 22 9 21 11 -31 73 -126 148 -185 332 -167 524 l6 67 -55 -1
c-43 0 -83 -12 -180 -53z m118 -273 c10 -64 46 -184 76 -254 5 -11 -9 -28 -50
-60 -128 -99 -250 -276 -314 -455 -38 -109 -38 -109 -76 -118 -99 -21 -372
-100 -489 -139 -283 -96 -504 -190 -782 -331 -206 -105 -195 -108 -131 39 72
164 198 370 309 506 131 161 335 348 513 470 44 30 242 136 440 236 357 180
362 182 427 183 l65 0 12 -77z"/>
<path d="M25768 34527 c6 -203 -44 -338 -176 -478 -41 -44 -73 -81 -71 -83 2
-1 30 -8 62 -15 32 -7 99 -33 150 -58 111 -56 222 -161 287 -271 l43 -73 -6
-127 c-5 -138 -25 -218 -80 -327 -57 -114 -158 -225 -274 -303 -29 -19 -53
-38 -53 -42 0 -4 28 -29 62 -56 143 -112 299 -298 373 -444 75 -149 101 -310
71 -450 -9 -44 -36 -117 -66 -177 -49 -99 -54 -105 -128 -158 -210 -149 -436
-224 -689 -228 l-106 -2 6 -148 5 -149 37 -54 c99 -143 265 -253 417 -275 114
-17 278 13 398 71 46 22 192 226 277 387 122 231 358 366 585 334 177 -25 298
-90 453 -246 99 -98 152 -185 180 -291 45 -173 -22 -381 -189 -590 l-72 -90
22 -68 c28 -82 73 -145 166 -231 79 -73 195 -135 286 -154 99 -20 238 -13 359
20 l43 12 -75 79 c-84 89 -112 132 -160 246 -157 372 -72 714 240 972 l65 54
0 140 c-1 863 -205 1579 -608 2131 -289 397 -719 753 -1202 995 -161 81 -594
260 -629 260 -3 0 -5 -51 -3 -113z m307 -174 c419 -163 802 -409 1136 -730
174 -167 289 -320 374 -498 49 -102 101 -243 92 -251 -3 -3 -47 17 -99 45
-373 201 -956 413 -1349 491 -55 11 -57 12 -64 48 -13 71 -57 198 -91 262 -64
122 -132 201 -277 322 l-28 23 30 55 c35 62 76 182 86 253 9 56 -9 58 190 -20z"/>
<path d="M11484 34170 c-11 -4 -60 -46 -109 -92 -67 -63 -95 -97 -115 -143
-89 -196 -60 -381 81 -508 33 -30 88 -70 122 -88 61 -33 64 -34 187 -34 107 0
133 4 183 24 136 54 261 239 258 383 -2 69 -32 191 -61 249 -54 105 -166 185
-290 209 -63 12 -227 12 -256 0z m241 -114 c166 -51 218 -190 155 -413 -22
-76 -49 -104 -144 -153 -117 -60 -241 -34 -346 71 -39 39 -54 64 -70 115 -47
154 -13 266 113 366 l52 41 95 -6 c52 -3 118 -13 145 -21z"/>
<path d="M28171 34169 c-13 -5 -63 -49 -111 -98 -67 -68 -97 -107 -126 -167
-36 -71 -39 -85 -39 -159 0 -71 4 -88 34 -150 37 -75 154 -202 240 -260 43
-29 47 -30 171 -30 126 0 126 0 202 38 85 41 155 110 207 201 28 48 31 62 31
138 0 99 -27 216 -67 289 -54 100 -172 178 -303 198 -80 13 -207 13 -239 0z
m355 -118 c123 -54 185 -184 167 -356 -6 -57 -9 -63 -68 -121 -149 -146 -289
-155 -426 -27 -28 26 -65 67 -81 91 -29 41 -30 48 -26 130 4 112 43 197 121
268 l52 46 105 -4 c79 -4 118 -10 156 -27z"/>
<path d="M14452 33713 c-120 -119 -147 -174 -147 -298 0 -121 28 -178 146
-297 97 -98 111 -104 244 -101 118 2 183 29 266 112 96 96 110 128 111 260 1
175 -42 278 -144 345 -72 48 -149 66 -280 66 l-108 0 -88 -87z m349 -19 c79
-22 132 -69 159 -142 19 -49 21 -72 17 -157 l-4 -99 -53 -48 c-147 -136 -284
-138 -412 -6 -72 74 -81 97 -76 192 6 109 52 201 128 252 29 20 47 24 109 24
41 0 101 -7 132 -16z"/>
<path d="M25105 33752 c-38 -28 -80 -59 -92 -69 -29 -23 -68 -121 -84 -207
-20 -108 10 -229 84 -339 27 -40 44 -52 107 -79 68 -29 84 -32 180 -33 97 0
110 2 170 31 36 17 93 56 127 87 57 54 61 61 71 120 21 119 23 155 12 222 -31
195 -163 294 -415 311 l-90 6 -70 -50z m214 -52 c162 -27 241 -128 241 -307 0
-60 -4 -80 -24 -111 -30 -48 -89 -100 -135 -120 -50 -21 -168 -19 -212 3 -114
58 -173 150 -172 269 1 89 15 120 88 203 67 75 92 82 214 63z"/>
<path d="M19830 33332 c-92 -15 -236 -113 -326 -222 -94 -115 -144 -269 -144
-444 1 -258 143 -469 410 -607 l65 -34 160 0 c131 0 170 3 215 19 189 65 312
175 412 369 l38 72 0 132 c0 402 -158 627 -490 699 -77 17 -277 26 -340 16z
m189 -132 c288 -26 444 -141 497 -367 18 -78 15 -266 -7 -367 -11 -54 -19 -66
-98 -146 -90 -92 -155 -133 -260 -164 -107 -32 -276 -13 -403 43 -91 41 -203
195 -243 335 -26 89 -16 254 21 361 23 68 37 90 93 148 75 78 181 153 226 160
52 7 57 7 174 -3z"/>
<path d="M10991 33173 c-93 -56 -167 -131 -200 -205 -86 -190 -62 -373 66
-505 103 -105 191 -143 337 -143 179 0 308 85 394 259 33 68 37 83 35 148 -5
205 -87 360 -229 429 -60 29 -181 53 -274 54 -58 0 -73 -4 -129 -37z m257 -88
c161 -48 234 -183 202 -375 -11 -65 -17 -79 -56 -120 -24 -26 -67 -60 -96 -76
-49 -27 -61 -29 -153 -29 -87 0 -105 3 -137 23 -92 57 -152 167 -152 277 0 39
6 89 13 113 16 58 85 140 151 180 51 31 59 33 116 28 34 -4 84 -13 112 -21z"/>
<path d="M28571 33124 c-102 -78 -116 -93 -142 -148 -102 -220 -71 -390 98
-546 79 -72 126 -95 221 -111 137 -23 271 19 365 113 95 95 127 178 127 335 0
273 -151 413 -470 438 l-85 6 -114 -87z m334 -36 c222 -50 297 -197 219 -428
-29 -82 -31 -86 -84 -118 -69 -41 -116 -54 -201 -54 -113 0 -212 62 -267 166
-23 44 -27 64 -27 136 0 51 6 98 14 118 8 20 55 70 110 119 107 94 99 92 236
61z"/>
<path d="M14910 32685 c-74 -46 -150 -101 -167 -122 -52 -60 -129 -221 -148
-308 -42 -189 19 -364 185 -531 96 -96 118 -110 237 -140 332 -86 578 32 729
350 l37 77 -5 137 c-5 112 -10 152 -32 219 -80 248 -281 380 -601 397 l-100 6
-135 -85z m384 -90 c264 -50 382 -231 347 -533 -14 -124 -40 -179 -128 -268
-114 -116 -306 -154 -469 -93 -75 28 -185 110 -228 168 -97 132 -112 352 -34
490 42 73 129 165 202 213 57 37 62 38 147 38 48 0 121 -7 163 -15z"/>
<path d="M24671 32744 c-46 -13 -116 -40 -156 -58 -60 -28 -82 -45 -130 -102
-151 -183 -207 -353 -171 -523 27 -126 100 -258 208 -372 80 -85 265 -144 428
-137 149 7 255 55 378 172 91 86 120 134 141 233 52 242 29 414 -74 550 -79
106 -209 184 -377 227 -142 37 -154 37 -247 10z m252 -163 c214 -55 316 -171
325 -369 5 -96 -6 -170 -39 -284 -17 -57 -27 -73 -79 -121 -155 -144 -354
-170 -550 -72 -88 44 -217 240 -240 365 -31 164 56 327 255 480 40 30 40 30
145 25 58 -2 140 -13 183 -24z"/>
<path d="M10713 32151 c-238 -167 -291 -376 -164 -646 35 -76 43 -85 100 -119
90 -55 163 -78 261 -84 73 -4 96 -1 156 20 81 28 161 79 217 135 31 33 41 54
63 138 21 85 25 117 22 210 -3 95 -8 118 -31 166 -68 141 -251 229 -475 229
-78 0 -79 0 -149 -49z m250 -131 c107 -16 169 -56 213 -140 28 -52 28 -282 0
-325 -71 -113 -174 -153 -318 -126 -163 32 -243 108 -255 242 -11 121 28 231
106 302 46 42 55 44 171 55 8 1 46 -3 83 -8z"/>
<path d="M28850 32165 c-146 -99 -202 -187 -230 -360 -21 -129 25 -269 122
-371 106 -112 174 -144 308 -144 138 0 249 47 351 149 83 84 94 119 94 316 0
132 -2 143 -28 200 -72 153 -219 233 -447 242 l-115 5 -55 -37z m386 -164
c100 -45 147 -119 165 -264 11 -81 10 -85 -16 -136 -75 -149 -199 -211 -359
-181 -59 11 -70 17 -115 64 -27 29 -62 77 -77 107 -24 46 -28 66 -29 134 0 95
26 157 100 242 52 59 66 63 201 58 56 -2 95 -9 130 -24z"/>
<path d="M19895 31543 c-55 -70 -161 -210 -237 -310 l-136 -182 31 -6 c72 -12
299 -25 441 -25 224 0 488 20 482 37 -12 32 -457 604 -475 611 -3 1 -51 -55
-106 -125z"/>
<path d="M17685 31346 c-22 -8 -66 -22 -97 -31 l-57 -16 -59 -117 c-33 -64
-78 -148 -101 -186 -23 -37 -39 -71 -36 -75 12 -11 488 -6 595 7 185 23 495
84 512 101 4 4 -78 78 -183 165 l-191 159 -172 4 c-131 3 -180 0 -211 -11z"/>
<path d="M21865 31280 c-50 -45 -133 -118 -185 -162 -52 -44 -95 -85 -95 -91
0 -6 11 -17 25 -24 31 -14 230 -47 405 -68 234 -27 685 -46 685 -29 0 3 -26
47 -58 98 -31 50 -80 137 -107 193 l-50 101 -55 11 c-91 17 -269 39 -375 46
l-101 7 -89 -82z"/>
<path d="M15411 31223 c-5 -21 -22 -85 -36 -143 -33 -132 -102 -338 -160 -475
l-44 -105 67 0 c163 0 446 38 635 85 117 30 327 97 327 105 0 11 -758 570
-773 570 -4 0 -11 -17 -16 -37z"/>
<path d="M24342 31106 c-106 -84 -271 -211 -367 -282 -95 -71 -174 -131 -174
-135 -1 -6 99 -39 229 -73 220 -59 462 -99 684 -112 l117 -7 -22 54 c-64 159
-129 335 -189 509 -37 107 -71 195 -76 196 -5 2 -96 -66 -202 -150z"/>
<path d="M10755 30934 c-124 -63 -152 -87 -236 -198 -111 -146 -153 -255 -154
-396 0 -118 25 -196 97 -307 72 -110 204 -236 276 -263 88 -33 186 -50 290
-50 177 0 276 42 403 169 74 75 92 101 143 204 l59 117 -6 133 c-7 154 -23
222 -77 332 -94 194 -282 294 -580 310 l-105 5 -110 -56z m387 -129 c227 -59
351 -233 352 -495 1 -104 0 -106 -41 -193 -120 -249 -337 -337 -618 -253 -99
30 -234 165 -276 276 -35 92 -43 182 -26 283 8 48 26 108 38 135 33 68 160
190 244 235 70 38 70 38 167 33 53 -3 125 -12 160 -21z"/>
<path d="M28691 30903 c-159 -97 -168 -107 -246 -262 -79 -158 -106 -328 -71
-457 42 -158 172 -304 380 -427 l71 -42 122 -3 c147 -5 240 13 343 64 130 65
240 193 310 360 l33 79 -11 120 c-22 222 -71 345 -187 460 -109 109 -231 162
-430 185 -161 18 -154 20 -314 -77z m378 -100 c195 -39 316 -127 372 -270 33
-85 31 -252 -4 -383 -25 -94 -27 -96 -95 -161 -139 -133 -310 -187 -457 -144
-81 23 -160 65 -233 122 -54 43 -64 57 -92 127 -74 185 -77 317 -12 456 34 70
144 181 237 238 69 41 71 42 140 36 39 -3 103 -12 144 -21z"/>
<path d="M13538 30233 c-60 -50 -150 -92 -232 -109 -39 -9 -72 -16 -73 -18 -6
-5 -124 -338 -121 -340 1 -2 43 1 92 5 187 17 364 67 531 149 99 48 275 157
275 170 0 13 -158 81 -338 145 l-92 33 -42 -35z"/>
<path d="M26157 30183 c-92 -46 -167 -86 -167 -91 0 -16 203 -138 345 -207
194 -95 265 -115 428 -122 70 -3 127 -2 127 2 0 4 -28 84 -61 176 l-62 169
-41 11 c-81 20 -233 73 -317 109 l-85 37 -167 -84z"/>
<path d="M19250 30390 c-1706 -82 -3395 -426 -5010 -1020 -434 -160 -932 -366
-1313 -544 l-99 -46 20 -32 c11 -18 43 -78 70 -133 l51 -100 10 -205 c6 -113
14 -247 17 -297 l6 -92 169 -92 169 -91 49 -102 c46 -95 138 -242 195 -310
l24 -29 219 91 c1649 686 3277 1092 4933 1231 456 38 655 46 1235 46 577 0
747 -7 1225 -46 1629 -132 3294 -547 4935 -1229 l220 -92 23 29 c33 40 203
297 241 365 32 57 34 58 181 133 81 42 155 82 164 88 13 10 18 62 31 302 l16
290 55 123 c71 154 68 166 -39 211 -1178 489 -1641 662 -2322 867 -1257 378
-2420 582 -3845 675 -208 14 -1397 20 -1630 9z m1395 -130 c1619 -81 3115
-359 4599 -854 574 -191 1201 -435 1648 -639 l77 -35 -5 -39 c-9 -62 -36 -190
-43 -200 -3 -5 -53 -22 -111 -37 -58 -16 -194 -58 -303 -93 l-197 -64 6 -27
c21 -89 91 -298 135 -404 28 -67 53 -130 55 -138 5 -15 -108 -235 -143 -278
-10 -13 -27 -23 -38 -24 -11 0 -103 36 -205 82 -1752 782 -3603 1207 -5670
1301 -332 15 -1214 6 -1520 -15 -943 -66 -1758 -196 -2635 -421 -828 -212
-1572 -477 -2490 -885 -100 -45 -144 -59 -155 -53 -41 25 -190 255 -190 293 0
7 45 118 100 247 56 129 103 246 106 261 9 43 -27 66 -179 117 -284 95 -391
138 -419 168 -47 49 -77 199 -45 225 17 14 456 202 706 302 1255 501 2590 862
3921 1059 558 83 1174 145 1595 161 268 10 1126 4 1400 -10z"/>
<path d="M19370 29806 l-545 -274 583 -291 c320 -160 594 -291 607 -291 29 0
160 64 455 223 220 118 622 342 654 363 18 12 1 23 -185 113 -205 99 -438 204
-624 279 -130 53 -388 152 -395 151 -3 0 -250 -123 -550 -273z"/>
<path d="M17814 29871 c-92 -64 -195 -175 -230 -247 -26 -52 -29 -70 -29 -154
0 -89 2 -100 36 -170 41 -86 109 -179 172 -237 36 -33 58 -44 118 -58 101 -23
223 -21 294 4 108 38 218 147 275 272 25 55 27 212 5 308 -51 213 -223 330
-486 331 l-86 0 -69 -49z m262 -142 c90 -16 161 -61 193 -123 44 -86 41 -270
-5 -326 -38 -44 -140 -108 -202 -126 -71 -21 -137 -8 -204 41 -61 45 -128 133
-139 186 -12 52 4 147 36 208 23 45 91 118 130 139 26 15 112 15 191 1z"/>
<path d="M21813 29893 c-24 -5 -151 -110 -199 -165 -19 -21 -44 -71 -60 -120
-24 -69 -29 -100 -29 -183 0 -95 2 -104 37 -178 42 -88 130 -184 211 -231 41
-24 61 -29 150 -33 116 -6 182 5 265 44 70 32 176 136 220 214 29 51 32 64 32
140 -1 281 -124 455 -358 505 -62 13 -218 17 -269 7z m268 -164 c45 -11 109
-57 144 -103 15 -19 38 -66 51 -104 23 -67 23 -71 8 -123 -33 -112 -84 -182
-159 -222 -31 -16 -63 -22 -143 -25 -99 -4 -104 -3 -143 24 -22 15 -58 49 -80
75 -121 144 -109 283 37 426 54 53 69 62 106 66 51 5 129 -1 179 -14z"/>
<path d="M23720 29524 c-151 -29 -437 -83 -635 -119 -458 -83 -413 -72 -389
-94 10 -10 255 -197 544 -416 l525 -397 65 7 c165 16 484 60 675 91 214 35
614 112 627 120 31 19 -1077 868 -1126 863 -6 -1 -135 -25 -286 -55z"/>
<path d="M15839 29478 c-166 -141 -617 -515 -762 -632 -133 -107 -163 -136
-139 -136 4 0 75 -16 157 -35 316 -74 726 -138 1061 -166 l140 -12 515 393
c543 415 545 417 538 424 -9 9 -452 95 -699 135 -203 33 -466 70 -686 95 -39
5 -45 2 -125 -66z"/>
<path d="M14105 28895 c-16 -14 -62 -50 -101 -80 -58 -44 -75 -64 -97 -112
-39 -87 -54 -187 -40 -269 24 -137 118 -271 219 -313 172 -70 342 -39 486 89
55 49 57 53 77 139 25 105 27 236 6 308 -45 151 -203 248 -424 259 -92 5 -97
4 -126 -21z m287 -117 c54 -23 116 -85 149 -149 18 -37 21 -54 16 -114 -15
-189 -107 -280 -282 -280 -98 0 -128 11 -179 63 -103 104 -132 225 -80 329 36
74 142 170 191 176 60 7 134 -3 185 -25z"/>
<path d="M25509 28867 c-36 -28 -82 -63 -102 -77 -59 -40 -107 -171 -107 -293
0 -105 39 -205 123 -309 56 -70 230 -119 348 -98 102 19 220 88 279 163 49 62
75 290 46 392 -20 68 -62 134 -109 169 -80 61 -232 106 -355 106 -54 0 -61 -3
-123 -53z m279 -94 c34 -10 71 -32 102 -60 64 -57 85 -117 84 -233 0 -80 -2
-89 -32 -132 -40 -58 -105 -114 -150 -129 -56 -18 -142 -7 -215 29 -60 30 -67
37 -102 104 -31 59 -39 86 -43 145 -7 110 30 185 133 266 48 38 51 39 110 33
33 -4 84 -14 113 -23z"/>
<path d="M19505 28549 c-351 -7 -575 -21 -1015 -65 -2124 -211 -4148 -850
-5995 -1892 -984 -556 -1771 -1123 -2643 -1905 -195 -175 -813 -792 -988 -987
-1280 -1422 -2204 -2999 -2823 -4814 -220 -646 -432 -1456 -555 -2126 -28
-155 -66 -468 -96 -785 -69 -761 -79 -1629 -24 -2355 178 -2401 964 -4610
2381 -6698 242 -358 683 -901 1134 -1397 332 -366 892 -911 1289 -1256 1898
-1646 4143 -2744 6715 -3284 810 -170 1366 -242 2285 -297 287 -17 1373 -17
1660 0 632 37 1131 91 1689 182 2198 359 4303 1217 6236 2542 442 303 942 705
1437 1155 335 305 803 783 1112 1136 1602 1831 2649 3990 3150 6497 95 475
118 642 150 1075 37 487 41 621 41 1250 -1 668 -9 883 -56 1380 -318 3415
-1821 6362 -4516 8857 -154 143 -527 445 -836 676 -2594 1946 -5468 2970
-8702 3102 -340 14 -626 16 -1030 9z m1025 -189 c584 -25 1092 -70 1625 -146
2701 -382 5186 -1476 7395 -3255 260 -209 427 -364 850 -788 467 -468 776
-809 1139 -1261 1726 -2145 2683 -4540 2875 -7195 54 -739 45 -1584 -25 -2355
-70 -787 -205 -1636 -329 -2070 -628 -2206 -1630 -4049 -3076 -5660 -185 -206
-716 -739 -929 -932 -700 -634 -1450 -1194 -2285 -1705 -481 -295 -1253 -684
-1893 -955 -1496 -632 -3084 -1020 -4682 -1142 -733 -56 -1535 -60 -2270 -11
-524 36 -840 71 -1285 145 -3687 613 -6734 2343 -9080 5155 -516 618 -810
1035 -1205 1710 -368 628 -728 1378 -983 2045 -872 2287 -1074 4698 -606 7254
128 699 486 1804 868 2678 607 1390 1383 2596 2395 3723 189 210 770 789 991
987 821 736 1723 1387 2585 1865 1120 622 2247 1082 3448 1408 668 181 1300
305 2051 405 294 39 821 87 1086 99 249 12 1074 12 1340 1z"/>
<path d="M19245 26734 c-22 -3 -143 -14 -270 -25 -1024 -90 -2052 -296 -3080
-615 -732 -228 -1678 -648 -2460 -1092 -811 -461 -1515 -969 -2220 -1601 -204
-183 -666 -647 -857 -861 -626 -701 -1167 -1462 -1638 -2305 -327 -586 -755
-1523 -887 -1940 -511 -1618 -694 -3263 -538 -4830 142 -1420 551 -2797 1235
-4165 245 -490 405 -757 755 -1260 1072 -1543 2363 -2760 3919 -3695 1223
-734 2710 -1312 4067 -1579 2328 -458 4580 -341 6766 353 944 300 2076 805
2803 1250 687 421 1320 889 1920 1419 198 175 768 743 936 932 997 1124 1713
2301 2269 3730 160 412 376 1086 479 1495 87 348 196 1057 245 1610 40 443 46
582 46 1145 0 605 -9 794 -61 1275 -250 2328 -1217 4477 -2890 6425 -235 274
-750 771 -1174 1135 -2067 1773 -4434 2809 -7110 3115 -186 21 -549 52 -820
71 -158 10 -1353 21 -1435 13z m1335 -163 c823 -48 1543 -145 2270 -307 1974
-439 3799 -1324 5460 -2649 372 -297 1015 -938 1455 -1450 1660 -1932 2575
-4088 2769 -6525 30 -376 39 -677 33 -1145 -6 -450 -11 -553 -42 -940 -48
-589 -143 -1236 -240 -1631 -150 -618 -347 -1203 -594 -1772 -102 -235 -293
-633 -302 -630 -33 12 -1399 1307 -1399 1326 0 5 27 81 61 168 316 826 528
1693 624 2544 65 585 73 1339 19 1930 -69 763 -259 1693 -460 2250 -728 2011
-1936 3656 -3584 4876 -381 283 -715 502 -1136 745 -106 61 -106 61 -127 41
-12 -10 -166 -147 -342 -303 -599 -531 -1593 -1422 -2254 -2022 -150 -136
-279 -246 -286 -244 -30 12 -341 109 -435 136 -785 225 -1637 330 -2443 301
-236 -9 -529 -29 -658 -46 l-46 -6 -564 528 c-1138 1067 -2036 1913 -3163
2984 l-680 645 91 42 c586 273 1384 562 2033 737 856 230 1841 389 2644 426
223 10 1059 4 1296 -9z m4942 -3382 c1177 -683 2152 -1513 2941 -2504 470
-591 900 -1286 1222 -1975 250 -534 483 -1152 574 -1520 485 -1954 447 -3799
-114 -5530 -372 -1146 -992 -2268 -1825 -3305 -314 -390 -844 -923 -1295
-1301 -443 -372 -948 -723 -1470 -1020 -102 -59 -188 -105 -190 -102 -2 2 -10
102 -17 223 -14 237 -18 1569 -5 1617 5 19 37 49 105 99 584 432 1180 993
1632 1539 1011 1219 1625 2703 1814 4385 39 345 50 534 51 870 0 342 -8 480
-46 830 -212 1925 -1024 3607 -2414 5001 -126 127 -282 275 -345 328 -124 106
-350 280 -443 341 l-57 38 -23 -20 c-12 -10 -98 -87 -192 -169 -331 -290 -723
-648 -1017 -927 -105 -99 -173 -157 -182 -154 -7 3 -68 39 -133 80 -334 209
-797 453 -1158 610 -110 48 -213 93 -229 100 l-29 13 354 324 c687 629 1477
1366 2079 1938 151 144 278 262 282 262 4 0 62 -32 130 -71z m-10882 -95 c193
-194 821 -800 1115 -1075 522 -488 1035 -951 1530 -1379 105 -90 282 -254 395
-364 413 -404 883 -841 1359 -1265 327 -290 870 -756 882 -756 5 0 263 227
574 504 l566 503 62 -12 c215 -41 649 -174 892 -273 332 -134 503 -231 645
-364 l71 -68 -1417 -1307 c-779 -720 -1420 -1308 -1423 -1308 -8 0 -474 424
-1386 1259 -1321 1211 -2616 2412 -3829 3550 -286 270 -385 357 -406 359 -43
5 -94 -27 -215 -133 -552 -485 -1041 -1013 -1435 -1550 -670 -913 -1135 -1952
-1365 -3045 -115 -547 -164 -1022 -172 -1653 -6 -450 2 -668 38 -1062 24 -270
38 -365 84 -581 333 -1557 992 -2871 2003 -3993 327 -363 903 -889 1226 -1121
l44 -32 7 -102 c16 -240 28 -1203 20 -1554 l-7 -283 -32 24 c-20 16 -33 37
-37 58 -6 30 -7 31 -8 7 l-1 -27 -112 68 c-570 344 -1168 786 -1643 1215 -625
565 -1139 1158 -1600 1846 -649 969 -1128 2075 -1436 3315 -90 362 -149 817
-191 1480 -27 429 -15 1150 28 1615 204 2246 1129 4208 2779 5889 418 425 890
843 1191 1053 301 211 1044 698 1064 698 3 0 66 -61 140 -136z m5670 -1954
c1519 -84 2863 -583 4125 -1534 119 -89 385 -343 385 -367 0 -20 -550 -552
-950 -919 l-228 -209 -79 67 c-743 640 -1552 1045 -2453 1231 -321 66 -626 99
-995 107 -324 8 -504 -3 -1005 -61 -214 -25 -394 -45 -400 -45 -18 0 -1280
1212 -1280 1229 0 4 12 12 28 18 15 6 83 36 152 66 143 63 379 144 525 181
332 84 1084 217 1330 235 152 12 637 12 845 1z m5377 -207 c899 -706 1602
-1532 2141 -2518 490 -897 822 -1975 926 -3010 39 -383 46 -985 16 -1340 -32
-382 -96 -802 -176 -1163 -43 -191 -134 -543 -151 -585 -9 -19 -46 14 -1393
1277 -1365 1280 -2554 2406 -4095 3880 -269 258 -507 485 -528 505 l-37 37
245 229 c136 127 252 231 258 233 17 4 180 -91 285 -165 124 -88 259 -209 344
-307 l72 -85 41 37 c22 21 299 269 615 552 316 283 597 537 623 565 55 56 137
162 137 176 0 25 -387 390 -562 531 l-58 46 291 301 c286 296 883 881 899 881
5 0 53 -35 107 -77z m-16922 -1473 c342 -307 1179 -1105 1208 -1151 7 -11 -10
-67 -66 -210 -360 -927 -558 -1804 -637 -2824 -18 -222 -24 -811 -11 -1065 27
-541 96 -1096 187 -1500 304 -1351 821 -2576 1537 -3644 856 -1276 2011 -2342
3456 -3188 74 -43 136 -77 137 -75 18 18 47 1552 37 1949 l-6 267 -77 60
c-454 352 -980 853 -1357 1291 -1012 1179 -1627 2523 -1842 4025 -69 481 -86
734 -86 1300 1 863 58 1349 231 1953 44 155 52 172 77 172 12 0 74 -53 156
-133 326 -318 810 -771 1125 -1052 l167 -150 -7 -120 c-21 -321 -6 -921 32
-1305 122 -1242 542 -2361 1234 -3285 455 -608 1058 -1170 1750 -1632 618
-412 1093 -642 1815 -878 l190 -62 7 -634 c3 -349 4 -1037 1 -1530 l-6 -896
114 -7 c348 -20 953 -30 1677 -27 l242 1 0 1419 0 1418 38 7 c20 3 231 8 467
12 l430 6 680 -644 c798 -754 3632 -3427 3689 -3479 l39 -36 -59 -27 c-416
-193 -1026 -428 -1479 -569 -1633 -511 -3269 -678 -5040 -517 -3581 327 -6536
1891 -8881 4700 -311 373 -774 1078 -1108 1688 -858 1568 -1315 3158 -1407
4897 -13 252 -7 1087 10 1310 66 853 176 1540 380 2351 77 305 96 370 175 595
153 437 356 931 546 1332 l32 68 22 -19 c11 -10 93 -83 181 -162z m6933 121
c48 -33 116 -84 152 -114 101 -83 1001 -929 998 -937 -2 -3 -59 -53 -128 -111
-822 -687 -1383 -1468 -1662 -2314 -263 -798 -289 -1666 -78 -2613 34 -150
107 -420 152 -562 37 -115 229 -497 357 -710 471 -781 1057 -1374 1774 -1794
314 -183 614 -318 982 -441 737 -247 1446 -336 2190 -274 1097 90 2079 486
2965 1196 l131 105 42 -38 c123 -109 443 -417 760 -733 379 -377 382 -381 340
-429 -24 -27 -188 -156 -363 -287 -977 -729 -2085 -1192 -3250 -1359 -424 -61
-733 -80 -1215 -73 -363 4 -460 11 -800 58 -1689 232 -3128 981 -4258 2217
-308 337 -521 614 -694 903 -574 960 -879 1886 -953 2894 -13 180 -13 640 0
820 62 831 294 1721 619 2366 290 576 642 1090 1056 1543 149 162 451 455 599
581 72 61 144 122 160 137 17 15 32 28 34 28 2 0 43 -27 90 -59z m5782 -5191
l0 -750 -832 0 -831 0 6 -292 c6 -266 20 -507 32 -565 l5 -23 670 0 670 0 0
-825 0 -825 -639 0 -639 0 -6 -57 c-15 -149 -28 -501 -29 -830 l-2 -363 -131
0 c-308 0 -730 61 -1112 160 -144 38 -444 133 -471 149 -16 10 -30 1672 -31
3639 l0 1332 1670 0 1670 0 0 -750z m-6075 -1181 c635 -576 1504 -1391 2241
-2101 l351 -339 7 -52 c13 -112 19 -477 8 -477 -36 0 -472 208 -645 307 -389
223 -685 450 -1008 772 -394 394 -667 777 -931 1306 -123 245 -195 452 -233
664 -9 47 -18 97 -21 111 -5 25 -5 25 28 -6 18 -17 109 -100 203 -185z m3098
-5148 c305 -68 560 -99 887 -108 139 -3 246 -11 280 -19 30 -8 92 -14 137 -14
l83 0 0 -1325 0 -1325 -875 0 -875 0 0 688 c0 698 9 1088 35 1627 24 487 27
529 30 542 3 8 28 4 85 -13 45 -13 141 -37 213 -53z"/>
<path d="M14483 6990 c0 -47 2 -66 4 -42 2 23 2 61 0 85 -2 23 -4 4 -4 -43z"/>
<path d="M14473 6740 c0 -30 2 -43 4 -27 2 15 2 39 0 55 -2 15 -4 2 -4 -28z"/>
<path d="M14463 6565 c0 -27 2 -38 4 -22 2 15 2 37 0 50 -2 12 -4 0 -4 -28z"/>
<path d="M14453 6415 c0 -22 2 -30 4 -17 2 12 2 30 0 40 -3 9 -5 -1 -4 -23z"/>
<path d="M14442 6290 c0 -19 2 -27 5 -17 2 9 2 25 0 35 -3 9 -5 1 -5 -18z"/>
<path d="M14432 6175 c0 -16 2 -22 5 -12 2 9 2 23 0 30 -3 6 -5 -1 -5 -18z"/>
</g>
</svg>
